<mxfile host="app.diagrams.net" agent="Mozilla/5.0 (Windows NT 10.0; Win64; x64) AppleWebKit/537.36 (KHTML, like Gecko) Chrome/126.0.0.0 Safari/537.36" version="24.7.7">
  <diagram name="Page-1" id="xYsEX8dRRKA42pnCce7e">
    <mxGraphModel dx="954" dy="558" grid="1" gridSize="10" guides="1" tooltips="1" connect="1" arrows="1" fold="1" page="1" pageScale="1" pageWidth="827" pageHeight="1169" math="0" shadow="0">
      <root>
        <mxCell id="0" />
        <mxCell id="1" parent="0" />
        <mxCell id="IvEWuJT5kZCaxAGLGMHn-29" value="源端口号(16位)" style="rounded=0;whiteSpace=wrap;html=1;fontSize=14;fillColor=#f5f5f5;strokeColor=#666666;fontColor=#333333;" parent="1" vertex="1">
          <mxGeometry x="40" y="119" width="360" height="50" as="geometry" />
        </mxCell>
        <mxCell id="IvEWuJT5kZCaxAGLGMHn-30" value="目标端口号(16位)" style="rounded=0;whiteSpace=wrap;html=1;fontSize=14;fillColor=#f5f5f5;strokeColor=#666666;fontColor=#333333;" parent="1" vertex="1">
          <mxGeometry x="400" y="119" width="360" height="50" as="geometry" />
        </mxCell>
        <mxCell id="IvEWuJT5kZCaxAGLGMHn-31" value="序列号&lt;span style=&quot;color: rgb(51, 51, 51);&quot;&gt;(32位)&lt;/span&gt;" style="rounded=0;whiteSpace=wrap;html=1;fontSize=14;fillColor=#ffe6cc;strokeColor=#d79b00;" parent="1" vertex="1">
          <mxGeometry x="40" y="169" width="720" height="50" as="geometry" />
        </mxCell>
        <mxCell id="IvEWuJT5kZCaxAGLGMHn-32" value="确认应答号&lt;span style=&quot;color: rgb(51, 51, 51);&quot;&gt;(32位)&lt;/span&gt;" style="rounded=0;whiteSpace=wrap;html=1;fontSize=14;fillColor=#fff2cc;strokeColor=#d6b656;" parent="1" vertex="1">
          <mxGeometry x="40" y="219" width="720" height="50" as="geometry" />
        </mxCell>
        <mxCell id="IvEWuJT5kZCaxAGLGMHn-33" value="窗口大小(16位)" style="rounded=0;whiteSpace=wrap;html=1;fontSize=14;fillColor=#f5f5f5;strokeColor=#666666;fontColor=#333333;" parent="1" vertex="1">
          <mxGeometry x="400" y="269" width="360" height="50" as="geometry" />
        </mxCell>
        <mxCell id="IvEWuJT5kZCaxAGLGMHn-34" value="头部长度(4位)" style="rounded=0;whiteSpace=wrap;html=1;fontSize=14;fillColor=#f5f5f5;strokeColor=#666666;fontColor=#333333;" parent="1" vertex="1">
          <mxGeometry x="40" y="269" width="70" height="50" as="geometry" />
        </mxCell>
        <mxCell id="IvEWuJT5kZCaxAGLGMHn-35" value="保留&lt;div&gt;(6位)&lt;/div&gt;" style="rounded=0;whiteSpace=wrap;html=1;fontSize=14;fillColor=#f5f5f5;strokeColor=#666666;fontColor=#333333;" parent="1" vertex="1">
          <mxGeometry x="110" y="269" width="50" height="50" as="geometry" />
        </mxCell>
        <mxCell id="IvEWuJT5kZCaxAGLGMHn-38" value="U&lt;div style=&quot;font-size: 12px;&quot;&gt;R&lt;/div&gt;&lt;div style=&quot;font-size: 12px;&quot;&gt;G&lt;/div&gt;" style="rounded=0;whiteSpace=wrap;html=1;fontSize=12;fillColor=#f5f5f5;strokeColor=#666666;fontColor=#333333;verticalAlign=middle;" parent="1" vertex="1">
          <mxGeometry x="160" y="269" width="40" height="50" as="geometry" />
        </mxCell>
        <mxCell id="IvEWuJT5kZCaxAGLGMHn-44" value="A&lt;div style=&quot;font-size: 12px;&quot;&gt;C&lt;/div&gt;&lt;div style=&quot;font-size: 12px;&quot;&gt;K&lt;/div&gt;" style="rounded=0;whiteSpace=wrap;html=1;fontSize=12;fillColor=#b0e3e6;strokeColor=#0e8088;verticalAlign=middle;" parent="1" vertex="1">
          <mxGeometry x="200" y="269" width="40" height="50" as="geometry" />
        </mxCell>
        <mxCell id="IvEWuJT5kZCaxAGLGMHn-45" value="P&lt;div style=&quot;font-size: 12px;&quot;&gt;S&lt;/div&gt;&lt;div style=&quot;font-size: 12px;&quot;&gt;H&lt;/div&gt;" style="rounded=0;whiteSpace=wrap;html=1;fontSize=12;fillColor=#f5f5f5;strokeColor=#666666;fontColor=#333333;verticalAlign=middle;" parent="1" vertex="1">
          <mxGeometry x="240" y="269" width="40" height="50" as="geometry" />
        </mxCell>
        <mxCell id="IvEWuJT5kZCaxAGLGMHn-46" value="R&lt;div style=&quot;font-size: 12px;&quot;&gt;S&lt;/div&gt;&lt;div style=&quot;font-size: 12px;&quot;&gt;T&lt;/div&gt;" style="rounded=0;whiteSpace=wrap;html=1;fontSize=12;fillColor=#f8cecc;strokeColor=#b85450;verticalAlign=middle;" parent="1" vertex="1">
          <mxGeometry x="280" y="269" width="40" height="50" as="geometry" />
        </mxCell>
        <mxCell id="IvEWuJT5kZCaxAGLGMHn-47" value="S&lt;div style=&quot;font-size: 12px;&quot;&gt;Y&lt;/div&gt;&lt;div style=&quot;font-size: 12px;&quot;&gt;N&lt;/div&gt;" style="rounded=0;whiteSpace=wrap;html=1;fontSize=12;fillColor=#e1d5e7;strokeColor=#9673a6;verticalAlign=middle;" parent="1" vertex="1">
          <mxGeometry x="320" y="269" width="40" height="50" as="geometry" />
        </mxCell>
        <mxCell id="IvEWuJT5kZCaxAGLGMHn-48" value="F&lt;div style=&quot;font-size: 12px;&quot;&gt;I&lt;/div&gt;&lt;div style=&quot;font-size: 12px;&quot;&gt;N&lt;/div&gt;" style="rounded=0;whiteSpace=wrap;html=1;fontSize=12;fillColor=#e3c800;strokeColor=#B09500;fontColor=#000000;verticalAlign=middle;" parent="1" vertex="1">
          <mxGeometry x="360" y="269" width="40" height="50" as="geometry" />
        </mxCell>
        <mxCell id="IvEWuJT5kZCaxAGLGMHn-49" value="可选项(长度可变)" style="rounded=0;whiteSpace=wrap;html=1;fontSize=14;fillColor=#f5f5f5;fontColor=#333333;strokeColor=#666666;" parent="1" vertex="1">
          <mxGeometry x="40" y="369" width="720" height="50" as="geometry" />
        </mxCell>
        <mxCell id="IvEWuJT5kZCaxAGLGMHn-50" value="数据" style="rounded=0;whiteSpace=wrap;html=1;fontSize=14;fillColor=#f5f5f5;fontColor=#333333;strokeColor=#666666;" parent="1" vertex="1">
          <mxGeometry x="40" y="419" width="720" height="50" as="geometry" />
        </mxCell>
        <mxCell id="IvEWuJT5kZCaxAGLGMHn-51" value="校验和" style="rounded=0;whiteSpace=wrap;html=1;fontSize=14;fillColor=#f5f5f5;fontColor=#333333;strokeColor=#666666;" parent="1" vertex="1">
          <mxGeometry x="40" y="319" width="360" height="50" as="geometry" />
        </mxCell>
        <mxCell id="IvEWuJT5kZCaxAGLGMHn-52" value="紧急指针(16位)" style="rounded=0;whiteSpace=wrap;html=1;fontSize=14;fillColor=#f5f5f5;fontColor=#333333;strokeColor=#666666;" parent="1" vertex="1">
          <mxGeometry x="400" y="319" width="360" height="50" as="geometry" />
        </mxCell>
        <mxCell id="BY9CQJ_JBvkrRc8On7Q_-1" value="&lt;h1&gt;TCP 头部格式&lt;/h1&gt;" style="text;html=1;align=center;verticalAlign=middle;resizable=0;points=[];autosize=1;strokeColor=none;fillColor=none;" vertex="1" parent="1">
          <mxGeometry x="310" y="60" width="170" height="70" as="geometry" />
        </mxCell>
      </root>
    </mxGraphModel>
  </diagram>
</mxfile>
